<svg xmlns="http://www.w3.org/2000/svg" xmlns:xlink="http://www.w3.org/1999/xlink" viewBox="0 0 184.48 42.5"><defs><style>.a,.b,.c,.d{fill:#2a9aeb;}.a,.b,.c,.d,.e{fill-rule:evenodd;}.b{opacity:0.7;}.c{opacity:0.4;}.d{opacity:0.8;}.e{fill:#1174d4;}.f{fill:url(#a);}.g{fill:url(#b);}.h{fill:url(#g);}.i{font-size:9.25px;fill:#414042;font-family:BrandonGrotesque-Regular, Brandon Grotesque;letter-spacing:0.08em;}.j{letter-spacing:0.1em;}</style><linearGradient id="a" x1="64.69" y1="17.6" x2="193.35" y2="17.6" gradientUnits="userSpaceOnUse"><stop offset="0" stop-color="#1174d4"/><stop offset="0" stop-color="#1174d4"/><stop offset="0.35" stop-color="#1f89e1"/><stop offset="0.68" stop-color="#2796e8"/><stop offset="1" stop-color="#2a9aeb"/></linearGradient><linearGradient id="b" x1="64.69" y1="17.48" x2="193.35" y2="17.48" xlink:href="#a"/><linearGradient id="g" x1="64.7" y1="17.48" x2="193.35" y2="17.48" xlink:href="#a"/></defs><title>Logo-horizontal</title><path class="a" d="M28.56,21.34a7.34,7.34,0,0,1-7.34,7.34h0a7.34,7.34,0,0,1-7.34-7.34h0A7.34,7.34,0,0,1,21.22,14h0a7.34,7.34,0,0,1,7.34,7.34Z"/><path class="b" d="M43.21,31.77a4.15,4.15,0,0,1-4.15,4.15h0a4.15,4.15,0,0,1-4.15-4.15h0a4.15,4.15,0,0,1,4.15-4.15h0a4.15,4.15,0,0,1,4.15,4.15Z"/><path class="a" d="M47.92,10.22a3.07,3.07,0,0,1-3.07,3.07h0a3.07,3.07,0,0,1-3.07-3.07h0a3.07,3.07,0,0,1,3.07-3.07h0a3.07,3.07,0,0,1,3.07,3.07Z"/><path class="c" d="M50.93,19.58a2.65,2.65,0,0,1-2.65,2.65h0a2.65,2.65,0,0,1-2.65-2.65h0a2.65,2.65,0,0,1,2.65-2.65h0a2.65,2.65,0,0,1,2.65,2.65Z"/><path class="b" d="M38.13,15.69A3.35,3.35,0,0,1,34.78,19h0a3.35,3.35,0,0,1-3.35-3.35h0a3.35,3.35,0,0,1,3.35-3.35h0a3.35,3.35,0,0,1,3.35,3.35Z"/><path class="a" d="M34.28,24.78a1.88,1.88,0,0,1-1.88,1.88h0a1.88,1.88,0,0,1-1.88-1.88h0A1.88,1.88,0,0,1,32.4,22.9h0a1.88,1.88,0,0,1,1.88,1.88Z"/><path class="a" d="M56.47,26.73a1.94,1.94,0,0,1-1.94,1.94h0a1.94,1.94,0,0,1-1.94-1.94h0a1.94,1.94,0,0,1,1.94-1.94h0a1.94,1.94,0,0,1,1.94,1.94Z"/><path class="d" d="M63.56,22.23a1.31,1.31,0,0,1-1.31,1.31h0a1.31,1.31,0,0,1-1.31-1.31h0a1.31,1.31,0,0,1,1.31-1.31h0a1.31,1.31,0,0,1,1.31,1.31Z"/><path class="a" d="M42.33,20.56a.86.86,0,0,1-.86.86h0a.86.86,0,0,1-.86-.86h0a.86.86,0,0,1,.86-.86h0a.86.86,0,0,1,.86.86Z"/><path class="e" d="M30.43,32.75A14.72,14.72,0,1,1,30.5,9.81l4.09-5.1a21.25,21.25,0,1,0-.07,33.13Z"/><path class="f" d="M67.43,9.44a.44.44,0,0,1,.42-.64h3.3a.49.49,0,0,1,.42.27l4.09,9.05h.15l4.09-9.05a.49.49,0,0,1,.42-.27h3.3a.44.44,0,0,1,.42.64L76.26,26.13a.47.47,0,0,1-.42.27h-.25a.47.47,0,0,1-.42-.27Z"/><path class="g" d="M93.62,8.55a8.33,8.33,0,0,1,6,2.31.46.46,0,0,1,0,.69l-1.93,2a.43.43,0,0,1-.62,0,5.07,5.07,0,0,0-3.35-1.26,4.94,4.94,0,0,0-4.86,5.11,4.91,4.91,0,0,0,4.89,5,5.25,5.25,0,0,0,3.32-1.19.49.49,0,0,1,.64,0l1.93,2.06a.5.5,0,0,1,0,.67,8.51,8.51,0,0,1-6,2.41,8.93,8.93,0,1,1,0-17.86Z"/><path class="g" d="M110.24,8.55a8.33,8.33,0,0,1,6,2.31.46.46,0,0,1,0,.69l-1.93,2a.43.43,0,0,1-.62,0,5.07,5.07,0,0,0-3.35-1.26,4.94,4.94,0,0,0-4.86,5.11,4.91,4.91,0,0,0,4.89,5,5.25,5.25,0,0,0,3.32-1.19.49.49,0,0,1,.64,0l1.93,2.06a.5.5,0,0,1,0,.67,8.51,8.51,0,0,1-6,2.41,8.93,8.93,0,1,1,0-17.86Z"/><path class="g" d="M119.24,9.27a.47.47,0,0,1,.47-.47h3a.49.49,0,0,1,.47.47V22.51H129a.47.47,0,0,1,.47.47v2.7a.47.47,0,0,1-.47.47h-9.33a.47.47,0,0,1-.47-.47Z"/><path class="g" d="M139.46,8.55a8.93,8.93,0,1,1-8.9,9A8.91,8.91,0,0,1,139.46,8.55Zm0,13.89a5,5,0,1,0-4.94-4.94A5,5,0,0,0,139.46,22.44Z"/><path class="f" d="M151.14,9.27a.49.49,0,0,1,.47-.47h3.05a.47.47,0,0,1,.47.47v10a3.08,3.08,0,1,0,6.15,0v-10a.47.47,0,0,1,.47-.47h3.05a.49.49,0,0,1,.47.47V19.51a7.07,7.07,0,0,1-14.14,0Z"/><path class="h" d="M175.77,8.8h-6.05a.46.46,0,0,0-.45.47v3.17h6.25a4.82,4.82,0,0,1,4.84,5,4.83,4.83,0,0,1-4.84,5h-2.38V16.3h-3.87v9.38a.47.47,0,0,0,.45.47h6.05a8.68,8.68,0,1,0,0-17.36Z"/><text class="i" transform="translate(101.37 36.33)">N<tspan class="j" x="7.91" y="0">on-stop evolving</tspan></text></svg>